<?xml version="1.0" encoding="UTF-8"?>
<svg width="40" height="40" viewBox="0 0 40 40" fill="none" xmlns="http://www.w3.org/2000/svg">
    <!-- Brain outline -->
    <path d="M20 5C14.5 5 10 9.5 10 15C10 17.8 11.1 20.3 13 22.1C13.1 22.2 13.2 22.3 13.3 22.4C13.4 22.5 13.5 22.6 13.6 22.7C13.7 22.8 13.8 22.9 13.9 23C14 23.1 14.1 23.2 14.2 23.3C14.3 23.4 14.4 23.5 14.5 23.6C14.6 23.7 14.7 23.8 14.8 23.9C14.9 24 15 24.1 15.1 24.2C15.2 24.3 15.3 24.4 15.4 24.5C15.5 24.6 15.6 24.7 15.7 24.8C15.8 24.9 15.9 25 16 25.1C16.1 25.2 16.2 25.3 16.3 25.4C16.4 25.5 16.5 25.6 16.6 25.7C16.7 25.8 16.8 25.9 16.9 26C17 26.1 17.1 26.2 17.2 26.3C17.3 26.4 17.4 26.5 17.5 26.6C17.6 26.7 17.7 26.8 17.8 26.9C17.9 27 18 27.1 18.1 27.2C18.2 27.3 18.3 27.4 18.4 27.5C18.5 27.6 18.6 27.7 18.7 27.8C18.8 27.9 18.9 28 19 28.1C19.1 28.2 19.2 28.3 19.3 28.4C19.4 28.5 19.5 28.6 19.6 28.7C19.7 28.8 19.8 28.9 19.9 29C20 29.1 20.1 29.2 20.2 29.3C20.3 29.4 20.4 29.5 20.5 29.6C20.6 29.7 20.7 29.8 20.8 29.9C20.9 30 21 30.1 21.1 30.2C21.2 30.3 21.3 30.4 21.4 30.5C21.5 30.6 21.6 30.7 21.7 30.8C21.8 30.9 21.9 31 22 31.1C22.1 31.2 22.2 31.3 22.3 31.4C22.4 31.5 22.5 31.6 22.6 31.7C22.7 31.8 22.8 31.9 22.9 32C23 32.1 23.1 32.2 23.2 32.3C23.3 32.4 23.4 32.5 23.5 32.6C23.6 32.7 23.7 32.8 23.8 32.9C23.9 33 24 33.1 24.1 33.2C24.2 33.3 24.3 33.4 24.4 33.5C24.5 33.6 24.6 33.7 24.7 33.8C24.8 33.9 24.9 34 25 34.1C25.1 34.2 25.2 34.3 25.3 34.4C25.4 34.5 25.5 34.6 25.6 34.7C25.7 34.8 25.8 34.9 25.9 35C26 35.1 26.1 35.2 26.2 35.3C26.3 35.4 26.4 35.5 26.5 35.6C26.6 35.7 26.7 35.8 26.8 35.9C26.9 36 27 36.1 27.1 36.2C27.2 36.3 27.3 36.4 27.4 36.5C27.5 36.6 27.6 36.7 27.7 36.8C27.8 36.9 27.9 37 28 37.1" 
        stroke="#4A90E2" 
        stroke-width="2" 
        stroke-linecap="round" 
        stroke-linejoin="round"/>
    
    <!-- Inner connections -->
    <path d="M15 15C15 15 17.5 17.5 20 15C22.5 12.5 25 15 25 15" 
        stroke="#2C3E50" 
        stroke-width="1.5" 
        stroke-linecap="round"/>
    
    <!-- Circles representing nodes -->
    <circle cx="15" cy="15" r="2" fill="#E74C3C"/>
    <circle cx="20" cy="13" r="2" fill="#E74C3C"/>
    <circle cx="25" cy="15" r="2" fill="#E74C3C"/>
    
    <!-- Mindfulness symbol -->
    <path d="M20 25C22.7614 25 25 22.7614 25 20C25 17.2386 22.7614 15 20 15C17.2386 15 15 17.2386 15 20C15 22.7614 17.2386 25 20 25Z" 
        stroke="#4A90E2" 
        stroke-width="1.5" 
        fill="none"/>
</svg> 